<?xml version="1.0" encoding="iso-8859-1"?>
<!-- Uploaded to: SVG Repo, www.svgrepo.com, Generator: SVG Repo Mixer Tools -->
<svg version="1.1" id="Layer_1" xmlns="http://www.w3.org/2000/svg" xmlns:xlink="http://www.w3.org/1999/xlink" 
	 viewBox="0 0 507.6 507.6" xml:space="preserve">
<path style="fill:#E57373;" d="M448.4,382.6H56.8c-0.8,0-44,40-44,40h483.6L448.4,382.6z"/>
<rect x="6" y="422.6" style="fill:#EF5350;" width="496.8" height="40"/>
<path style="fill:#64B5F6;" d="M438.8,60.2C435.6,51.4,357.6,27,252.4,27c-104,0-180,25.2-182.8,34.4l-9.2,321.2H448L438.8,60.2z"/>
<path style="fill:#BF360C;" d="M26,479h456.4c7.2,0,17.6-4,19.6-16H6.8C8.4,475,18.8,479,26,479z"/>
<path style="fill:#EEEEEE;" d="M344.4,176.2h-58c-0.8,0-2-1.6-2-2.8V115c0-4.4-4.8-7.2-9.2-7.2h-42c-5.2,0-8.8,2.8-8.8,7.2v58.4
	c0,1.2-1.2,2.8-2,2.8H164c-4.4,0-7.6,4-7.6,8.8v41.6c0,4.4,3.2,9.6,7.6,9.6h58.4c1.2,0,2,0.4,2,1.2v58c0,4,3.6,8.8,8.8,8.8h42
	c4.8,0,9.2-4.4,9.2-8.8v-57.6c0-0.8,0.8-1.2,2-1.2h58c4.4,0,8-5.2,8-9.6v-42.4C352.8,179.8,349.2,176.2,344.4,176.2z"/>
<path d="M483.2,485H26.8C14,485,0,476.6,0,463v-36.8c0-1.2,0.4-2.4,1.2-3.2l53.2-46.4L66,61.4c0-19.6,92.4-38.8,186.8-38.8
	s190,19.6,190,38.8l8.8,314.8l54.4,46c0.8,0.8,1.6,2,1.6,3.2v36.4C507.2,475,496.4,485,483.2,485z M8,427.8V463
	c0,8.4,9.6,14,18.8,14h456.4c9.2,0,16-6.4,16.8-15.2v-34.4l-54.4-46c-0.8-0.8-1.2-2-1.6-2.8l-8.8-316.8c-2.8-9.2-76.8-30.8-182-30.8
	c-104,0-176.4,22-178.8,31.2L62.8,379c0,1.2-0.4,2-1.2,2.8L8,427.8z"/>
<path d="M450.8,384.6H60.4c-2.4,0-4-1.6-4-4s1.6-4,4-4h390.4c2.4,0,4,1.6,4,4S453.2,384.6,450.8,384.6z"/>
<path d="M434.8,428.6H6c-2.4,0-4-1.6-4-4s1.6-4,4-4h428.8c2.4,0,4,1.6,4,4S436.8,428.6,434.8,428.6z"/>
<path d="M502.8,428.6h-36c-2.4,0-4-1.6-4-4s1.6-4,4-4h36c2.4,0,4,1.6,4,4S505.2,428.6,502.8,428.6z"/>
<path d="M434.8,469H6c-2.4,0-4-1.6-4-4s1.6-4,4-4h428.8c2.4,0,4,1.6,4,4S436.8,469,434.8,469z"/>
<path d="M498.8,469h-32c-2.4,0-4-1.6-4-4s1.6-4,4-4h32c2.4,0,4,1.6,4,4S501.2,469,498.8,469z"/>
<path d="M274,312.2h-40.4c-7.6,0-13.2-5.6-13.2-13.6v-59.2h-59.2c-8,0-13.6-5.2-13.6-12.8v-40.8c0-7.6,5.6-13.2,13.6-13.2h59.2
	v-59.2c0-8,5.6-13.6,13.2-13.6H274c8,0,13.2,5.6,13.2,13.6v59.2H346c4,0,7.2,1.2,9.6,3.6c2.4,2.4,4,5.6,4,9.6v40.8
	c0,7.6-5.6,12.8-13.6,12.8h-58.8v59.2C287.2,306.6,282,312.2,274,312.2z M161.6,181c-1.6,0-5.6,0.4-5.6,5.2V227c0,4,3.2,4.8,5.6,4.8
	h63.2c2.4,0,4,1.6,4,4V299c0,1.6,0.4,5.6,5.2,5.6h40.4c4.8,0,5.2-4,5.2-5.6v-63.2c0-2.4,1.6-4,4-4h62.8c2.4,0,5.6-0.8,5.6-4.8v-40.8
	c0-1.6-0.4-2.8-1.6-3.6c-0.8-0.8-2.4-1.2-4.4-1.2h-62.8c-2.4,0-4-1.6-4-4v-63.2c0-1.6-0.4-5.6-5.2-5.6h-40.4c-4.8,0-5.2,4-5.2,5.6
	v63.2c0,2.4-1.6,4-4,4h-62.8V181z"/>
</svg>